# xmcd
#
# Track frame offsets:
#	150
#	20894
#	36115
#	72411
#	92930
#	108564
#	124877
#	143334
#	164238
#	200528
#	223725
#	249723
#	284928
#
# Disc length: 4054 seconds
#
# Revision: 0
# Processed by: cddbd v1.5PL3 Copyright (c) Steve Scherf et al.
# Submitted via: dBpowerAMP V4.0
#
DISCID=da0fd40d
DTITLE=Ryan Montbleau - The Moonshine Compilation
DYEAR=2003
DGENRE=Blued
TTITLE0=Dancing in the Sunshine
TTITLE1=Sittin' on Top of the World
TTITLE2=Shuffling Paper - On Broadway
TTITLE3=The Appendix Song
TTITLE4=Tuesday Morning
TTITLE5=Here at All
TTITLE6=Just Perfect
TTITLE7=Stretch
TTITLE8=Waling on the Moon
TTITLE9=Substitute Teacher Blues
TTITLE10=Pleasurefields
TTITLE11=Already There
TTITLE12=Honeymoon Eyes
EXTD=
EXTT0=
EXTT1=
EXTT2=
EXTT3=
EXTT4=
EXTT5=
EXTT6=
EXTT7=
EXTT8=
EXTT9=
EXTT10=
EXTT11=
EXTT12=
PLAYORDER=
